<svg width="24" height="24" viewBox="0 0 24 24" fill="none" xmlns="http://www.w3.org/2000/svg">
<path d="M19.1745 1.82475H4.82475C3.17475 1.82475 1.82475 3.17475 1.82475 4.82475V19.176C1.82475 20.826 3.17475 22.176 4.82475 22.176H19.176C20.826 22.176 22.176 20.826 22.176 19.176V4.82475C22.1745 3.17475 20.826 1.82475 19.1745 1.82475ZM18.9817 12.687H16.5667V21.4245H12.9532V12.687H11.1457V9.675H12.9532V7.8675C12.9532 5.4105 13.9732 3.94875 16.8757 3.94875H19.2885V6.96H17.7795C16.6515 6.96 16.5765 7.38225 16.5765 8.1675L16.5667 9.675H19.3005L18.9817 12.687Z" fill="white"/>
</svg>
