<svg width="24" height="24" viewBox="0 0 24 24" fill="none" xmlns="http://www.w3.org/2000/svg">
<path fill-rule="evenodd" clip-rule="evenodd" d="M22.133 7.448C22.08 8.888 21.516 12.969 17.243 17.243C12.969 21.516 8.889 22.079 7.448 22.133C5.252 22.213 3.119 20.531 2.286 18.588C2.18497 18.354 2.1465 18.0978 2.17438 17.8445C2.20225 17.5911 2.29551 17.3494 2.445 17.143C3.611 15.543 5.375 14.439 6.762 13.491C7.06673 13.2824 7.43755 13.1932 7.8038 13.2404C8.17005 13.2877 8.50613 13.468 8.748 13.747L10.197 15.698C10.2651 15.7923 10.365 15.8586 10.4783 15.8847C10.5916 15.9108 10.7105 15.8949 10.813 15.84C11.616 15.398 12.812 14.612 13.712 13.712C14.612 12.812 15.45 11.559 15.942 10.7C16.0025 10.5923 16.0194 10.4655 15.9892 10.3457C15.9591 10.226 15.8842 10.1223 15.78 10.056L13.847 8.786C13.5368 8.55251 13.3291 8.20807 13.2672 7.82482C13.2053 7.44157 13.2941 7.04924 13.515 6.73C14.489 5.323 15.574 3.681 17.113 2.479C17.3209 2.31737 17.5684 2.21456 17.8296 2.18131C18.0909 2.14806 18.3562 2.1856 18.598 2.29C20.551 3.127 22.214 5.245 22.133 7.448Z" fill="white"/>
</svg>
